Coordinates
version=1
nRows=37
nColumns=19
inDegrees=yes

Units are S.I. units (second, meters, Newtons, ...)
If the header above contains a line with 'inDegrees', this indicates whether rotational values are in degrees (yes) or radians (no).

endheader
time	pelvis_to_ground_rx	pelvis_to_ground_ry	pelvis_to_ground_rz	pelvis_to_ground_tx	pelvis_to_ground_ty	pelvis_to_ground_tz	left_hip_abduction	left_hip_rotation	left_hip_flexion	left_knee_flexion	left_ankle_flexion	left_subtalar_angle	right_hip_abduction	right_hip_rotation	right_hip_flexion	right_knee_flexion	right_ankle_flexion	right_subtalar_angle
      1.11000000	     98.12925895	      7.57571951	     -5.00395725	     -0.63933753	     -0.65871164	      0.73236036	    -14.37191087	     -9.49127676	     13.36623703	    -28.31255367	      4.98914419	    -10.55000325	      1.84749439	    -12.79306335	     30.58212702	    -64.06616308	     -2.90547394	    -12.42720792
      1.12000000	     97.94683580	      8.33134557	     -4.79799379	     -0.62933498	     -0.65901339	      0.73315985	    -14.09040150	    -10.02745560	     12.15166872	    -28.09104132	      4.98897991	    -10.40913591	      1.82511421	    -12.15132887	     31.76221165	    -62.82187635	     -2.79199594	    -12.52761766
      1.13000000	     97.84087240	      9.13339704	     -4.63563834	     -0.61940384	     -0.65937929	      0.73358758	    -13.88625018	    -10.46436208	     11.06513648	    -28.01193064	      4.99194629	    -10.24470374	      1.59085519	    -11.54330597	     32.88600350	    -61.38171845	     -2.64832840	    -12.63796884
      1.14000000	     97.79957067	      9.98682909	     -4.50700137	     -0.60951607	     -0.65980116	      0.73365789	    -13.73946824	    -10.80640052	     10.07919526	    -28.04843435	      5.01701798	    -10.05397529	      1.16604860	    -11.01229008	     33.93035507	    -59.73638272	     -2.52788646	    -12.70114854
      1.15000000	     97.82743054	     10.88543080	     -4.42558941	     -0.59963686	     -0.66026655	      0.73339609	    -13.64521197	    -11.08318358	      9.17815967	    -28.15909608	      5.07937071	     -9.82417449	      0.56115627	    -10.57453700	     34.89284775	    -57.88262625	     -2.45782947	    -12.67976458
      1.16000000	     97.91792430	     11.81929243	     -4.39468216	     -0.58971982	     -0.66077607	      0.73283063	    -13.58967877	    -11.31193737	      8.33967870	    -28.30620497	      5.19202361	     -9.55250346	     -0.19874294	    -10.23106091	     35.75650217	    -55.81617591	     -2.46380832	    -12.53838617
      1.17000000	     98.02924395	     12.74892014	     -4.38752349	     -0.57973057	     -0.66131487	      0.73197790	    -13.52453979	    -11.28751656	      7.59955374	    -28.56169225	      5.91427109	     -8.29583064	     -1.05015004	     -9.96213727	     36.48473137	    -53.53038954	     -2.60540835	    -11.63200472
      1.18000000	     98.23637017	     13.65221297	     -4.45858463	     -0.56959521	     -0.66181805	      0.73089889	    -13.53695374	    -11.43820495	      6.80927127	    -28.66446422	      6.29189907	     -7.80455349	     -2.05454869	     -9.76294285	     37.10416571	    -51.04680936	     -2.68680773	    -11.07006681
      1.19000000	     98.44562500	     14.55666463	     -4.53141026	     -0.55926653	     -0.66235009	      0.72961952	    -13.53661617	    -11.68339673	      5.96058076	    -28.71604166	      6.40454757	     -7.66553300	     -3.08847208	     -9.64736666	     37.51749794	    -48.35002612	     -2.82723795	    -10.79786284
      1.20000000	     98.66433346	     15.38315502	     -4.62108624	     -0.54871084	     -0.66286859	      0.72813044	    -13.52512149	    -11.82163541	      5.12682812	    -28.78907744	      6.83048120	     -7.33205450	     -4.13971154	     -9.52206384	     37.75484577	    -45.49851201	     -3.48728086	     -9.82235113
      1.21000000	     98.89316598	     16.15849454	     -4.69067540	     -0.53784899	     -0.66337544	      0.72647183	    -13.52944361	    -12.08166788	      4.18097646	    -28.78578664	      7.21962909	     -7.02031778	     -5.18474926	     -9.42766657	     37.77074782	    -42.54121826	     -3.97147727	     -9.01339552
      1.22000000	     99.11001958	     16.86114644	     -4.72335025	     -0.52664548	     -0.66387291	      0.72465514	    -13.53406464	    -12.41424630	      3.13832178	    -28.75289282	      7.55819249	     -6.80859231	     -6.17933530	     -9.32614697	     37.56801001	    -39.54326153	     -4.51635701	     -8.30036555
      1.23000000	     99.32426428	     17.44559351	     -4.73794601	     -0.51509347	     -0.66434725	      0.72269139	    -13.55256219	    -12.75358867	      2.04648398	    -28.73094270	      7.92275089	     -6.63682987	     -7.12481399	     -9.13090691	     37.19481079	    -36.59236941	     -5.17894446	     -7.56233902
      1.24000000	     99.50556209	     17.95060770	     -4.64635178	     -0.50315934	     -0.66480960	      0.72059115	    -13.58744794	    -13.16487406	      0.82054464	    -28.75138740	      8.10591225	     -6.55309150	     -7.96597364	     -8.90664524	     36.59898913	    -33.78965787	     -5.58129494	     -7.16806029
      1.25000000	     99.58588494	     18.36421542	     -4.54929649	     -0.49087318	     -0.66530398	      0.71842890	    -13.52127421	    -13.50530642	     -0.30878188	    -28.95041108	      8.46963869	     -6.51203157	     -8.58635898	     -8.65504283	     35.93197194	    -31.17887613	     -6.48629459	     -6.49193848
      1.26000000	     99.62785010	     18.65672349	     -4.37040775	     -0.47826430	     -0.66578064	      0.71619325	    -13.46831138	    -13.79438822	     -1.45197739	    -29.32040105	      8.57771893	     -6.47368151	     -9.08549425	     -8.28484751	     35.14916106	    -28.89658995	     -6.78965146	     -6.24786952
      1.27000000	     99.55334398	     18.87491445	     -4.19060292	     -0.46537293	     -0.66629857	      0.71398211	    -13.30210069	    -13.99132722	     -2.41457579	    -29.98453393	      8.76148370	     -6.47450231	     -9.31449749	     -7.94369064	     34.38154816	    -26.97054145	     -7.46064017	     -5.96782874
      1.28000000	     99.36658634	     19.00557348	     -4.09831381	     -0.45224893	     -0.66688369	      0.71188349	    -13.00427482	    -14.09374000	     -3.07918980	    -30.95967686	      8.73834079	     -6.47683742	     -9.30246172	     -7.53920343	     33.71753353	    -25.41632421	     -7.51326951	     -5.91436009
      1.29000000	     99.09742511	     18.98524377	     -3.81395909	     -0.43901096	     -0.66742550	      0.70974761	    -12.62504005	    -13.71418841	     -3.61163986	    -32.40375657	      8.63647587	     -6.50421392	     -9.11968132	     -7.01919434	     32.96102699	    -24.38206734	     -7.59273666	     -5.94349421
      1.30000000	     98.68030135	     18.90897702	     -3.64915332	     -0.42565774	     -0.66807344	      0.70782929	    -12.02984516	    -13.15621201	     -3.71047403	    -34.25100449	      8.42955977	     -6.52262266	     -8.65030418	     -6.50723465	     32.37039296	    -23.72137439	     -7.52799200	     -6.08757829
      1.31000000	     98.12505706	     18.74983823	     -3.56572749	     -0.41227138	     -0.66882897	      0.70611893	    -11.21858039	    -12.28970010	     -3.37153162	    -36.53159132	      7.79943269	     -6.29515885	     -7.97027941	     -5.85807602	     31.90021833	    -23.41446077	     -7.12889795	     -6.73913414
      1.32000000	     97.43374307	     18.53598258	     -3.44345375	     -0.39889283	     -0.66966143	      0.70455561	    -10.20957358	    -11.05791015	     -2.70544770	    -39.25600870	      7.16013975	     -6.09617776	     -7.03362347	     -5.28225180	     31.48042901	    -23.50346515	     -6.67110178	     -7.38356301
      1.33000000	     96.59938397	     18.25897894	     -3.37930721	     -0.38558578	     -0.67063147	      0.70324230	     -9.00284692	     -9.54722065	     -1.64616094	    -42.34841739	      6.39069897	     -5.90678534	     -5.90153550	     -4.60519357	     31.13536734	    -23.82415136	     -6.05232962	     -7.94945889
      1.34000000	     95.64784285	     17.92103039	     -3.29106007	     -0.37238375	     -0.67170681	      0.70214096	     -7.66143301	     -7.75827901	     -0.32180715	    -45.74252115	      5.43671701	     -5.69781457	     -4.59385294	     -3.91243476	     30.79065035	    -24.35598443	     -5.29464484	     -8.51114112
      1.35000000	     94.58979351	     17.54076915	     -3.21465345	     -0.35932886	     -0.67290971	      0.70130357	     -6.22976144	     -5.80345242	      1.25374350	    -49.35731117	      4.33517070	     -5.52502268	     -3.13542244	     -3.21831906	     30.44023978	    -24.98155099	     -4.45117517	     -9.02408460
      1.36000000	     93.45186044	     17.11764770	     -3.14574078	     -0.34645967	     -0.67422515	      0.70075734	     -4.77172218	     -3.74863531	      3.02498256	    -53.10659407	      3.13301960	     -5.44783356	     -1.56403843	     -2.54671672	     30.05048339	    -25.60947117	     -3.57454488	     -9.44974092
      1.37000000	     92.26785006	     16.65476137	     -3.08842118	     -0.33380903	     -0.67563347	      0.70053150	     -3.35413309	     -1.66171869	      4.94785329	    -56.90416137	      1.85496115	     -5.52183914	      0.07576072	     -1.92643761	     29.59478086	    -26.15540074	     -2.68894490	     -9.76085020
      1.38000000	     91.07109292	     16.15501104	     -3.07232196	     -0.32140656	     -0.67712268	      0.70066158	     -2.03739848	      0.39581204	      7.01635614	    -60.67144620	      0.56805924	     -5.78420955	      1.74018985	     -1.37561629	     29.07609692	    -26.54300740	     -1.83270955	     -9.93532133
      1.39000000	     89.90103960	     15.62129025	     -3.10932086	     -0.30927464	     -0.67866043	      0.70116870	     -0.88323833	      2.38039619	      9.21078469	    -64.33328821	     -0.68491016	     -6.27159118	      3.37811420	     -0.91055238	     28.48543897	    -26.71998087	     -1.02484336	     -9.94674262
      1.40000000	     88.78943550	     15.05638073	     -3.21667328	     -0.29741482	     -0.68022547	      0.70205906	      0.06084947	      4.25619394	     11.52507529	    -67.82358137	     -1.79380447	     -6.94077562	      4.94616274	     -0.52948151	     27.82607363	    -26.65131498	     -0.31967780	     -9.79593454
      1.41000000	     87.74236834	     14.45825440	     -3.27428108	     -0.28579763	     -0.68179350	      0.70329197	      0.80179556	      6.01177363	     13.80939562	    -71.07260796	     -2.87279260	     -8.05498243	      6.43155632	     -0.24002422	     26.97161412	    -26.33026909	      0.36583675	     -9.31227417
      1.42000000	     86.82165604	     13.83648099	     -3.46818653	     -0.27444596	     -0.68334519	      0.70489169	      1.25604605	      7.63909074	     16.26047834	    -74.05551753	     -3.05487770	     -8.29339920	      7.74831357	      0.03291904	     26.10095593	    -25.73914981	      0.51025972	     -9.23112809
      1.43000000	     86.03177332	     13.21071973	     -3.69479317	     -0.26331010	     -0.68486812	      0.70678609	      1.43542515	      9.06776766	     18.73941841	    -76.70634885	     -3.28201766	     -8.57073629	      8.90034690	      0.25057145	     25.13123143	    -24.93009347	      0.69300942	     -9.09387558
      1.44000000	     85.41999747	     12.60423605	     -4.04340990	     -0.25237442	     -0.68630620	      0.70896424	      1.28151210	     10.23809614	     21.31549661	    -78.97201876	     -3.68988422	     -9.33233691	      9.85713267	      0.33021685	     24.18537122	    -23.95635336	      1.04392460	     -8.53917553
      1.45000000	     84.90017584	     11.91466177	     -4.18273470	     -0.24154206	     -0.68767366	      0.71126329	      0.99390980	     11.34297236	     23.62477097	    -80.84069266	     -3.68674715	     -9.61176851	     10.63928001	      0.62064867	     22.89378936	    -22.80604354	      1.12605851	     -8.32242293
      1.46000000	     84.56712479	     11.27137741	     -4.47443800	     -0.23085698	     -0.68893166	      0.71373365	      0.39959208	     12.12086105	     26.03232083	    -82.28852686	     -3.50989269	    -10.14382200	     11.20792945	      0.84073055	     21.70063550	    -21.57745844	      1.18681668	     -7.83149537
      1.47000000	     84.34244834	     10.56707226	     -4.59733827	     -0.22022452	     -0.69007123	      0.71623238	     -0.30298252	     12.77634097	     28.16878894	    -83.30264777	     -3.37755586	    -10.35450711	     11.59305459	      1.29766267	     20.24801173	    -20.26358112	      1.21856882	     -7.61869791
